# xmcd
#
# Track frame offsets:
#	150
#	19660
#	42617
#	58113
#	78211
#	95649
#	116877
#	135055
#	151679
#	176701
#	197316
#	219934
#
# Disc length: 3241 seconds
#
# Revision: 1
# Processed by: cddbd v1.4PL0 Copyright (c) Steve Scherf et al.
# Submitted via: EasyCDDAExtractor 6.0.0.1
#
DISCID=940ca70c
DTITLE=Kentucky Headhunters - Songs From The Grass String Ranch
DYEAR=2000
DGENRE=Country
TTITLE0=Grass String Ranch
TTITLE1=Back To The Sun
TTITLE2=Jessico
TTITLE3=Once In A While
TTITLE4=Love That Woman
TTITLE5=Too Much To Lose
TTITLE6=Louisianna Coco
TTITLE7=Country Life
TTITLE8=Dry Land Fish
TTITLE9=Dreamin'Kind
TTITLE10=I Wish I Knew
TTITLE11=Rock On
EXTD=
EXTT0=
EXTT1=
EXTT2=
EXTT3=
EXTT4=
EXTT5=
EXTT6=
EXTT7=
EXTT8=
EXTT9=
EXTT10=
EXTT11=
PLAYORDER=
